<mxfile host="app.diagrams.net" agent="Mozilla/5.0 (Macintosh; Intel Mac OS X 10_15_7) AppleWebKit/537.36 (KHTML, like Gecko) Chrome/128.0.0.0 Safari/537.36" version="24.7.16">
  <diagram name="Page-1" id="eolxBy9lrnrE16EK-n6i">
    <mxGraphModel dx="2074" dy="1121" grid="1" gridSize="10" guides="1" tooltips="1" connect="1" arrows="1" fold="1" page="1" pageScale="1" pageWidth="850" pageHeight="1100" math="0" shadow="0">
      <root>
        <mxCell id="0" />
        <mxCell id="1" parent="0" />
        <mxCell id="9-m_0JWrrq6i_i4lzONN-14" style="edgeStyle=orthogonalEdgeStyle;rounded=0;orthogonalLoop=1;jettySize=auto;html=1;exitX=1;exitY=0.25;exitDx=0;exitDy=0;entryX=0;entryY=0.25;entryDx=0;entryDy=0;" edge="1" parent="1" source="9-m_0JWrrq6i_i4lzONN-1" target="9-m_0JWrrq6i_i4lzONN-5">
          <mxGeometry relative="1" as="geometry" />
        </mxCell>
        <mxCell id="9-m_0JWrrq6i_i4lzONN-1" value="React UI" style="rounded=0;whiteSpace=wrap;html=1;" vertex="1" parent="1">
          <mxGeometry x="20" y="430" width="130" height="80" as="geometry" />
        </mxCell>
        <mxCell id="9-m_0JWrrq6i_i4lzONN-3" value="Search Flow (running locally)" style="text;html=1;align=center;verticalAlign=middle;resizable=0;points=[];autosize=1;strokeColor=none;fillColor=none;fontSize=19;" vertex="1" parent="1">
          <mxGeometry x="170" y="340" width="270" height="40" as="geometry" />
        </mxCell>
        <mxCell id="9-m_0JWrrq6i_i4lzONN-4" value="/search" style="text;html=1;align=center;verticalAlign=middle;resizable=0;points=[];autosize=1;strokeColor=none;fillColor=none;" vertex="1" parent="1">
          <mxGeometry x="190" y="410" width="60" height="30" as="geometry" />
        </mxCell>
        <mxCell id="9-m_0JWrrq6i_i4lzONN-15" style="edgeStyle=orthogonalEdgeStyle;rounded=0;orthogonalLoop=1;jettySize=auto;html=1;exitX=0;exitY=0.75;exitDx=0;exitDy=0;entryX=1;entryY=0.75;entryDx=0;entryDy=0;" edge="1" parent="1" source="9-m_0JWrrq6i_i4lzONN-5" target="9-m_0JWrrq6i_i4lzONN-1">
          <mxGeometry relative="1" as="geometry" />
        </mxCell>
        <mxCell id="9-m_0JWrrq6i_i4lzONN-5" value="Spring Boot App" style="rounded=0;whiteSpace=wrap;html=1;" vertex="1" parent="1">
          <mxGeometry x="250" y="430" width="120" height="80" as="geometry" />
        </mxCell>
        <mxCell id="9-m_0JWrrq6i_i4lzONN-6" value="Chat GPT" style="ellipse;whiteSpace=wrap;html=1;rounded=0;" vertex="1" parent="1">
          <mxGeometry x="270" y="568" width="80" height="80" as="geometry" />
        </mxCell>
        <mxCell id="9-m_0JWrrq6i_i4lzONN-9" value="" style="endArrow=classic;startArrow=classic;html=1;rounded=0;exitX=0.5;exitY=0;exitDx=0;exitDy=0;entryX=0.5;entryY=1;entryDx=0;entryDy=0;" edge="1" parent="1" source="9-m_0JWrrq6i_i4lzONN-6" target="9-m_0JWrrq6i_i4lzONN-5">
          <mxGeometry width="50" height="50" relative="1" as="geometry">
            <mxPoint x="400" y="600" as="sourcePoint" />
            <mxPoint x="450" y="550" as="targetPoint" />
            <Array as="points" />
          </mxGeometry>
        </mxCell>
        <mxCell id="9-m_0JWrrq6i_i4lzONN-10" value="1" style="text;html=1;align=center;verticalAlign=middle;resizable=0;points=[];autosize=1;strokeColor=none;fillColor=none;" vertex="1" parent="1">
          <mxGeometry x="160" y="410" width="30" height="30" as="geometry" />
        </mxCell>
        <mxCell id="9-m_0JWrrq6i_i4lzONN-11" value="2" style="text;html=1;align=center;verticalAlign=middle;resizable=0;points=[];autosize=1;strokeColor=none;fillColor=none;" vertex="1" parent="1">
          <mxGeometry x="305" y="518" width="30" height="30" as="geometry" />
        </mxCell>
        <mxCell id="9-m_0JWrrq6i_i4lzONN-16" value="Postgres" style="shape=cylinder3;whiteSpace=wrap;html=1;boundedLbl=1;backgroundOutline=1;size=15;" vertex="1" parent="1">
          <mxGeometry x="480" y="430" width="60" height="80" as="geometry" />
        </mxCell>
        <mxCell id="9-m_0JWrrq6i_i4lzONN-17" style="edgeStyle=orthogonalEdgeStyle;rounded=0;orthogonalLoop=1;jettySize=auto;html=1;exitX=1;exitY=0.5;exitDx=0;exitDy=0;entryX=0;entryY=0.5;entryDx=0;entryDy=0;entryPerimeter=0;" edge="1" parent="1" source="9-m_0JWrrq6i_i4lzONN-5" target="9-m_0JWrrq6i_i4lzONN-16">
          <mxGeometry relative="1" as="geometry" />
        </mxCell>
        <mxCell id="9-m_0JWrrq6i_i4lzONN-18" value="3" style="text;html=1;align=center;verticalAlign=middle;resizable=0;points=[];autosize=1;strokeColor=none;fillColor=none;" vertex="1" parent="1">
          <mxGeometry x="410" y="480" width="30" height="30" as="geometry" />
        </mxCell>
        <mxCell id="9-m_0JWrrq6i_i4lzONN-19" value="4" style="text;html=1;align=center;verticalAlign=middle;resizable=0;points=[];autosize=1;strokeColor=none;fillColor=none;" vertex="1" parent="1">
          <mxGeometry x="185" y="488" width="30" height="30" as="geometry" />
        </mxCell>
      </root>
    </mxGraphModel>
  </diagram>
</mxfile>
